<svg width="25" height="23" viewBox="0 0 25 23" fill="none" xmlns="http://www.w3.org/2000/svg">
<g clip-path="url(#clip0_2208_320)">
<path d="M12.8464 0.201722C6.6363 0.199211 1.60645 5.22655 1.60645 11.4316C1.60645 16.3384 4.75293 20.5095 9.13491 22.0413C9.72503 22.1894 9.63463 21.7701 9.63463 21.4838V19.5377C6.22698 19.9369 6.08887 17.6819 5.86035 17.3052C5.3983 16.5167 4.30594 16.3158 4.63239 15.9392C5.40834 15.5399 6.19936 16.0396 7.11593 17.3931C7.77888 18.375 9.07213 18.2093 9.72754 18.046C9.87068 17.4559 10.177 16.9286 10.5989 16.5192C7.06822 15.8864 5.59668 13.7319 5.59668 11.1705C5.59668 9.92745 6.006 8.78487 6.80957 7.86327C6.29729 6.34402 6.85728 5.04324 6.93262 4.84988C8.3916 4.7193 9.90834 5.89452 10.0264 5.98744C10.8551 5.76394 11.8018 5.64592 12.8615 5.64592C13.9262 5.64592 14.8754 5.76897 15.7116 5.99497C15.9954 5.77901 17.4016 4.76952 18.7577 4.89257C18.8305 5.08593 19.3779 6.35658 18.8958 7.85574C19.7094 8.77985 20.1237 9.93247 20.1237 11.178C20.1237 13.7444 18.6422 15.9015 15.1014 16.5243C15.4047 16.8225 15.6455 17.1782 15.8098 17.5706C15.974 17.9629 16.0585 18.3841 16.0582 18.8094V21.6345C16.0783 21.8605 16.0582 22.084 16.4348 22.084C20.8821 20.5848 24.0838 16.3836 24.0838 11.4341C24.0838 5.22655 19.0515 0.201722 12.8464 0.201722Z" fill="white"/>
</g>
<defs>
<clipPath id="clip0_2208_320">
<rect width="24" height="22.2857" fill="white" transform="translate(0.856445)"/>
</clipPath>
</defs>
</svg>
