<svg width="25" height="24" viewBox="0 0 25 24" fill="none" xmlns="http://www.w3.org/2000/svg">
<g clip-path="url(#clip0_2208_317)">
<path fill-rule="evenodd" clip-rule="evenodd" d="M13.7605 19.6842V22.8482C13.7605 23.0701 13.5806 23.25 13.3587 23.25H12.3542C12.1323 23.25 11.9524 23.0701 11.9524 22.8482V19.6842C12.3503 19.7254 12.6517 19.746 12.8564 19.746C13.0612 19.746 13.3626 19.7254 13.7605 19.6842ZM18.9146 16.7797L21.152 19.0171C21.3089 19.174 21.3089 19.4284 21.152 19.5853L20.4417 20.2955C20.2848 20.4524 20.0304 20.4524 19.8735 20.2955L17.6362 18.0582C17.9467 17.806 18.1744 17.6075 18.3192 17.4627C18.464 17.3179 18.6624 17.0902 18.9146 16.7797M6.79824 16.7797C7.05044 17.0902 7.24892 17.3179 7.39372 17.4627C7.53854 17.6075 7.7662 17.806 8.0767 18.0582L5.83938 20.2955C5.68249 20.4524 5.42806 20.4524 5.27118 20.2955L4.5609 19.5852C4.404 19.4283 4.404 19.1739 4.5609 19.017L6.79824 16.7797ZM12.8564 6.12388C16.1017 6.12388 18.7326 8.7547 18.7326 12C18.7326 15.2453 16.1017 17.8761 12.8564 17.8761C9.61115 17.8761 6.98033 15.2453 6.98033 12C6.98033 8.7547 9.61115 6.12388 12.8564 6.12388ZM12.8564 7.93192C10.6097 7.93192 8.78836 9.75326 8.78836 12C8.78836 14.2467 10.6097 16.0681 12.8564 16.0681C15.1032 16.0681 16.9245 14.2467 16.9245 12C16.9245 9.75326 15.1032 7.93192 12.8564 7.93192ZM5.17229 11.096C5.13104 11.4939 5.11042 11.7952 5.11042 12C5.11042 12.2048 5.13104 12.5061 5.17229 12.904H2.00823C1.78632 12.904 1.60645 12.7241 1.60645 12.5022V11.4978C1.60645 11.2759 1.78632 11.096 2.00823 11.096H5.17229ZM23.7047 11.096C23.9266 11.096 24.1064 11.2759 24.1064 11.4978V12.5022C24.1064 12.7241 23.9266 12.904 23.7047 12.904H20.5406C20.5819 12.5061 20.6025 12.2048 20.6025 12C20.6025 11.7952 20.5819 11.4939 20.5406 11.096H23.7047ZM20.4417 3.67934L21.152 4.38963C21.3089 4.54652 21.3089 4.80093 21.152 4.95783L18.9146 7.19515C18.6624 6.88464 18.4639 6.65698 18.3191 6.51216C18.1743 6.36737 17.9467 6.16888 17.6362 5.91669L19.8735 3.67934C20.0304 3.52245 20.2848 3.52245 20.4417 3.67934M5.83936 3.67934L8.07668 5.91669C7.76617 6.16888 7.53851 6.36737 7.39369 6.51216C7.2489 6.65698 7.05042 6.88464 6.79822 7.19515L4.56088 4.95783C4.40398 4.80093 4.40398 4.5465 4.56088 4.38963L5.27116 3.67934C5.42806 3.52245 5.68246 3.52245 5.83936 3.67934ZM13.3587 0.75C13.5806 0.75 13.7605 0.929874 13.7605 1.15179V4.31585C13.3626 4.27459 13.0612 4.25397 12.8564 4.25397C12.6517 4.25397 12.3503 4.27459 11.9524 4.31585V1.15179C11.9524 0.929874 12.1323 0.75 12.3542 0.75H13.3587Z" fill="white"/>
</g>
<defs>
<clipPath id="clip0_2208_317">
<rect width="24" height="24" fill="white" transform="translate(0.856445)"/>
</clipPath>
</defs>
</svg>
